<?xml version="1.0" encoding="utf-8"?>
<!-- Generator: Adobe Illustrator 19.0.0, SVG Export Plug-In . SVG Version: 6.00 Build 0)  -->
<svg version="1.1" id="Layer_1" xmlns="http://www.w3.org/2000/svg" xmlns:xlink="http://www.w3.org/1999/xlink" x="0px" y="0px"
	 viewBox="0 0 200 70" style="enable-background:new 0 0 200 70;" xml:space="preserve">
<path d="M165.9,69c-17.5,0-27-10.2-33.6-21.1C126.2,59,116.5,69,100.1,69c-17.3,0-27-10.4-32.9-21.1C60.6,58.6,50.9,69,34.1,69
	C15.4,69,0,53.3,0,35.1C0,16.4,15.4,1,34.1,1c17.3,0,26.7,10.4,33.4,21.3C73.6,11.2,83.1,1,100.1,1c16.8,0,26.3,10.4,32.2,21.3
	C139.2,11.7,148.9,1,165.9,1C184.6,1,200,16.4,200,35.1C200,53.6,184.6,69,165.9,69L165.9,69z M138.9,35.1c7.1,13.3,14,21.3,27,21.3
	c11.4,0,21.1-9.5,21.1-21.3c0-12.3-9.9-21.5-21.1-21.5C153.1,13.6,146.3,22.1,138.9,35.1L138.9,35.1z M74.3,35.1
	c6.2,13,12.5,21.3,25.8,21.3c11.8,0,18.7-8.3,25.1-21.3c-6.4-13-12.8-21.5-25.1-21.5C87.3,13.6,80.7,22.1,74.3,35.1L74.3,35.1z
	 M34.1,13.6C22.5,13.6,13,23.3,13,35.1c0,9.7,7.6,21.3,21.1,21.3c12.5,0,19.4-8.5,26.5-21.3C53.7,21.9,47.1,13.6,34.1,13.6z"/>
</svg>
